# xmcd
#
# Track frame offsets: 
#        150
#        7137
#        64980
#        83370
#
# Disc length: 1199 seconds
#
# Revision: 2
# Processed by: cddbd v1.5.2PL0 Copyright (c) Steve Scherf et al.
# Submitted via: ExactAudioCopy v1.0b1
#
DISCID=2804ad04
DTITLE=Various Artist - PATLABOR SS-REMIX ID-SINGLE
DYEAR=1993
DGENRE=Pop
TTITLE0=コンディション・グリーン(TVサイズ)
TTITLE1=ヘッドギア・インタビュー
TTITLE2=SS-REMIX体験コーナー
TTITLE3=パラダイスの確立(TVサイズ)
EXTD=
EXTT0=
EXTT1=
EXTT2=
EXTT3=
PLAYORDER=
